<?xml version="1.0" encoding="UTF-8"?>
<!DOCTYPE svg PUBLIC "-//W3C//DTD SVG 1.1//EN" "http://www.w3.org/Graphics/SVG/1.1/DTD/svg11.dtd">
<svg width="235mm" height="179mm" viewBox="0 0 23500 17900" version="1.1" xmlns="http://www.w3.org/2000/svg" stroke-width="28.222" stroke-linejoin="round" xml:space="preserve">
 <path fill="rgb(255,255,255)" stroke="none" d="M 11737,17896 L 1,17896 1,0 23472,0 23472,17896 11737,17896 Z"/>
 <path fill="none" stroke="rgb(179,179,179)" stroke-linejoin="round" d="M 10729,15932 L 2877,15932 2877,1838 18581,1838 18581,15932 10729,15932 Z"/>
 <path fill="none" stroke="rgb(179,179,179)" stroke-linejoin="round" d="M 18581,15931 L 2877,15931"/>
 <path fill="none" stroke="rgb(179,179,179)" stroke-linejoin="round" d="M 18581,14169 L 2877,14169"/>
 <path fill="none" stroke="rgb(179,179,179)" stroke-linejoin="round" d="M 18581,12407 L 2877,12407"/>
 <path fill="none" stroke="rgb(179,179,179)" stroke-linejoin="round" d="M 18581,10645 L 2877,10645"/>
 <path fill="none" stroke="rgb(179,179,179)" stroke-linejoin="round" d="M 18581,8884 L 2877,8884"/>
 <path fill="none" stroke="rgb(179,179,179)" stroke-linejoin="round" d="M 18581,7122 L 2877,7122"/>
 <path fill="none" stroke="rgb(179,179,179)" stroke-linejoin="round" d="M 18581,5360 L 2877,5360"/>
 <path fill="none" stroke="rgb(179,179,179)" stroke-linejoin="round" d="M 18581,3598 L 2877,3598"/>
 <path fill="none" stroke="rgb(179,179,179)" stroke-linejoin="round" d="M 18581,1837 L 2877,1837"/>
 <path fill="none" stroke="rgb(179,179,179)" stroke-linejoin="round" d="M 2877,16081 L 2877,15931"/>
 <path fill="none" stroke="rgb(179,179,179)" stroke-linejoin="round" d="M 2877,16081 L 2877,15931"/>
 <path fill="none" stroke="rgb(179,179,179)" stroke-linejoin="round" d="M 5120,16081 L 5120,15931"/>
 <path fill="none" stroke="rgb(179,179,179)" stroke-linejoin="round" d="M 5120,16081 L 5120,15931"/>
 <path fill="none" stroke="rgb(179,179,179)" stroke-linejoin="round" d="M 7364,16081 L 7364,15931"/>
 <path fill="none" stroke="rgb(179,179,179)" stroke-linejoin="round" d="M 7364,16081 L 7364,15931"/>
 <path fill="none" stroke="rgb(179,179,179)" stroke-linejoin="round" d="M 9607,16081 L 9607,15931"/>
 <path fill="none" stroke="rgb(179,179,179)" stroke-linejoin="round" d="M 9607,16081 L 9607,15931"/>
 <path fill="none" stroke="rgb(179,179,179)" stroke-linejoin="round" d="M 11850,16081 L 11850,15931"/>
 <path fill="none" stroke="rgb(179,179,179)" stroke-linejoin="round" d="M 11850,16081 L 11850,15931"/>
 <path fill="none" stroke="rgb(179,179,179)" stroke-linejoin="round" d="M 14093,16081 L 14093,15931"/>
 <path fill="none" stroke="rgb(179,179,179)" stroke-linejoin="round" d="M 14093,16081 L 14093,15931"/>
 <path fill="none" stroke="rgb(179,179,179)" stroke-linejoin="round" d="M 16337,16081 L 16337,15931"/>
 <path fill="none" stroke="rgb(179,179,179)" stroke-linejoin="round" d="M 16337,16081 L 16337,15931"/>
 <path fill="none" stroke="rgb(179,179,179)" stroke-linejoin="round" d="M 18581,16081 L 18581,15931"/>
 <path fill="none" stroke="rgb(179,179,179)" stroke-linejoin="round" d="M 18581,16081 L 18581,15931"/>
 <path fill="none" stroke="rgb(179,179,179)" stroke-linejoin="round" d="M 2877,15931 L 18581,15931"/>
 <path fill="none" stroke="rgb(179,179,179)" stroke-linejoin="round" d="M 2727,15931 L 2877,15931"/>
 <path fill="none" stroke="rgb(179,179,179)" stroke-linejoin="round" d="M 2727,15931 L 2877,15931"/>
 <path fill="none" stroke="rgb(179,179,179)" stroke-linejoin="round" d="M 2727,14169 L 2877,14169"/>
 <path fill="none" stroke="rgb(179,179,179)" stroke-linejoin="round" d="M 2727,14169 L 2877,14169"/>
 <path fill="none" stroke="rgb(179,179,179)" stroke-linejoin="round" d="M 2727,12407 L 2877,12407"/>
 <path fill="none" stroke="rgb(179,179,179)" stroke-linejoin="round" d="M 2727,12407 L 2877,12407"/>
 <path fill="none" stroke="rgb(179,179,179)" stroke-linejoin="round" d="M 2727,10645 L 2877,10645"/>
 <path fill="none" stroke="rgb(179,179,179)" stroke-linejoin="round" d="M 2727,10645 L 2877,10645"/>
 <path fill="none" stroke="rgb(179,179,179)" stroke-linejoin="round" d="M 2727,8884 L 2877,8884"/>
 <path fill="none" stroke="rgb(179,179,179)" stroke-linejoin="round" d="M 2727,8884 L 2877,8884"/>
 <path fill="none" stroke="rgb(179,179,179)" stroke-linejoin="round" d="M 2727,7122 L 2877,7122"/>
 <path fill="none" stroke="rgb(179,179,179)" stroke-linejoin="round" d="M 2727,7122 L 2877,7122"/>
 <path fill="none" stroke="rgb(179,179,179)" stroke-linejoin="round" d="M 2727,5360 L 2877,5360"/>
 <path fill="none" stroke="rgb(179,179,179)" stroke-linejoin="round" d="M 2727,5360 L 2877,5360"/>
 <path fill="none" stroke="rgb(179,179,179)" stroke-linejoin="round" d="M 2727,3598 L 2877,3598"/>
 <path fill="none" stroke="rgb(179,179,179)" stroke-linejoin="round" d="M 2727,3598 L 2877,3598"/>
 <path fill="none" stroke="rgb(179,179,179)" stroke-linejoin="round" d="M 2727,1837 L 2877,1837"/>
 <path fill="none" stroke="rgb(179,179,179)" stroke-linejoin="round" d="M 2727,1837 L 2877,1837"/>
 <path fill="none" stroke="rgb(179,179,179)" stroke-linejoin="round" d="M 2877,15931 L 2877,1837"/>
 <path fill="none" stroke="rgb(131,202,255)" stroke-width="80" stroke-linejoin="round" d="M 2877,4174 L 5120,8016 7364,9159 9607,9953 11850,10479 14093,10814 16337,11002 18581,11138"/>
 <path fill="rgb(131,202,255)" stroke="none" d="M 2752,4174 L 3002,4299 3002,4049 2752,4174 Z"/>
 <path fill="none" stroke="rgb(131,202,255)" stroke-linejoin="round" d="M 2752,4174 L 3002,4299 3002,4049 2752,4174 Z"/>
 <path fill="rgb(131,202,255)" stroke="none" d="M 4995,8016 L 5245,8141 5245,7891 4995,8016 Z"/>
 <path fill="none" stroke="rgb(131,202,255)" stroke-linejoin="round" d="M 4995,8016 L 5245,8141 5245,7891 4995,8016 Z"/>
 <path fill="rgb(131,202,255)" stroke="none" d="M 7239,9159 L 7489,9284 7489,9034 7239,9159 Z"/>
 <path fill="none" stroke="rgb(131,202,255)" stroke-linejoin="round" d="M 7239,9159 L 7489,9284 7489,9034 7239,9159 Z"/>
 <path fill="rgb(131,202,255)" stroke="none" d="M 9482,9953 L 9732,10078 9732,9828 9482,9953 Z"/>
 <path fill="none" stroke="rgb(131,202,255)" stroke-linejoin="round" d="M 9482,9953 L 9732,10078 9732,9828 9482,9953 Z"/>
 <path fill="rgb(131,202,255)" stroke="none" d="M 11726,10479 L 11975,10604 11975,10354 11726,10479 Z"/>
 <path fill="none" stroke="rgb(131,202,255)" stroke-linejoin="round" d="M 11726,10479 L 11975,10604 11975,10354 11726,10479 Z"/>
 <path fill="rgb(131,202,255)" stroke="none" d="M 13968,10814 L 14218,10939 14218,10689 13968,10814 Z"/>
 <path fill="none" stroke="rgb(131,202,255)" stroke-linejoin="round" d="M 13968,10814 L 14218,10939 14218,10689 13968,10814 Z"/>
 <path fill="rgb(131,202,255)" stroke="none" d="M 16212,11002 L 16462,11127 16462,10877 16212,11002 Z"/>
 <path fill="none" stroke="rgb(131,202,255)" stroke-linejoin="round" d="M 16212,11002 L 16462,11127 16462,10877 16212,11002 Z"/>
 <path fill="rgb(131,202,255)" stroke="none" d="M 18456,11138 L 18706,11263 18706,11013 18456,11138 Z"/>
 <path fill="none" stroke="rgb(131,202,255)" stroke-linejoin="round" d="M 18456,11138 L 18706,11263 18706,11013 18456,11138 Z"/>
 <path fill="none" stroke="rgb(126,0,33)" stroke-width="80" stroke-linejoin="round" d="M 2877,7958 L 5120,10672 7364,11491 9607,12062 11850,12439 14093,12677 16337,12838 18581,12947"/>
 <path fill="rgb(126,0,33)" stroke="none" d="M 2752,7833 L 2752,8083 3002,7958 2752,7833 Z"/>
 <path fill="none" stroke="rgb(126,0,33)" stroke-linejoin="round" d="M 2752,7833 L 2752,8083 3002,7958 2752,7833 Z"/>
 <path fill="rgb(126,0,33)" stroke="none" d="M 4995,10547 L 4995,10797 5245,10672 4995,10547 Z"/>
 <path fill="none" stroke="rgb(126,0,33)" stroke-linejoin="round" d="M 4995,10547 L 4995,10797 5245,10672 4995,10547 Z"/>
 <path fill="rgb(126,0,33)" stroke="none" d="M 7239,11366 L 7239,11616 7489,11491 7239,11366 Z"/>
 <path fill="none" stroke="rgb(126,0,33)" stroke-linejoin="round" d="M 7239,11366 L 7239,11616 7489,11491 7239,11366 Z"/>
 <path fill="rgb(126,0,33)" stroke="none" d="M 9482,11937 L 9482,12187 9732,12062 9482,11937 Z"/>
 <path fill="none" stroke="rgb(126,0,33)" stroke-linejoin="round" d="M 9482,11937 L 9482,12187 9732,12062 9482,11937 Z"/>
 <path fill="rgb(126,0,33)" stroke="none" d="M 11726,12314 L 11726,12564 11975,12439 11726,12314 Z"/>
 <path fill="none" stroke="rgb(126,0,33)" stroke-linejoin="round" d="M 11726,12314 L 11726,12564 11975,12439 11726,12314 Z"/>
 <path fill="rgb(126,0,33)" stroke="none" d="M 13968,12552 L 13968,12802 14218,12677 13968,12552 Z"/>
 <path fill="none" stroke="rgb(126,0,33)" stroke-linejoin="round" d="M 13968,12552 L 13968,12802 14218,12677 13968,12552 Z"/>
 <path fill="rgb(126,0,33)" stroke="none" d="M 16212,12713 L 16212,12963 16462,12838 16212,12713 Z"/>
 <path fill="none" stroke="rgb(126,0,33)" stroke-linejoin="round" d="M 16212,12713 L 16212,12963 16462,12838 16212,12713 Z"/>
 <path fill="rgb(126,0,33)" stroke="none" d="M 18456,12822 L 18456,13072 18706,12947 18456,12822 Z"/>
 <path fill="none" stroke="rgb(126,0,33)" stroke-linejoin="round" d="M 18456,12822 L 18456,13072 18706,12947 18456,12822 Z"/>
 <path fill="none" stroke="rgb(87,157,28)" stroke-width="80" stroke-linejoin="round" d="M 2877,8000 L 5120,10695 7364,11501 9607,12063 11850,12434 14093,12670 16337,12842 18581,12958"/>
 <path fill="rgb(87,157,28)" stroke="none" d="M 2752,8125 L 3002,8125 2877,7875 2752,8125 Z"/>
 <path fill="none" stroke="rgb(87,157,28)" stroke-linejoin="round" d="M 2752,8125 L 3002,8125 2877,7875 2752,8125 Z"/>
 <path fill="rgb(87,157,28)" stroke="none" d="M 4995,10820 L 5245,10820 5120,10570 4995,10820 Z"/>
 <path fill="none" stroke="rgb(87,157,28)" stroke-linejoin="round" d="M 4995,10820 L 5245,10820 5120,10570 4995,10820 Z"/>
 <path fill="rgb(87,157,28)" stroke="none" d="M 7239,11626 L 7489,11626 7364,11376 7239,11626 Z"/>
 <path fill="none" stroke="rgb(87,157,28)" stroke-linejoin="round" d="M 7239,11626 L 7489,11626 7364,11376 7239,11626 Z"/>
 <path fill="rgb(87,157,28)" stroke="none" d="M 9482,12188 L 9732,12188 9607,11938 9482,12188 Z"/>
 <path fill="none" stroke="rgb(87,157,28)" stroke-linejoin="round" d="M 9482,12188 L 9732,12188 9607,11938 9482,12188 Z"/>
 <path fill="rgb(87,157,28)" stroke="none" d="M 11726,12559 L 11975,12559 11850,12309 11726,12559 Z"/>
 <path fill="none" stroke="rgb(87,157,28)" stroke-linejoin="round" d="M 11726,12559 L 11975,12559 11850,12309 11726,12559 Z"/>
 <path fill="rgb(87,157,28)" stroke="none" d="M 13968,12795 L 14218,12795 14093,12545 13968,12795 Z"/>
 <path fill="none" stroke="rgb(87,157,28)" stroke-linejoin="round" d="M 13968,12795 L 14218,12795 14093,12545 13968,12795 Z"/>
 <path fill="rgb(87,157,28)" stroke="none" d="M 16212,12967 L 16462,12967 16337,12717 16212,12967 Z"/>
 <path fill="none" stroke="rgb(87,157,28)" stroke-linejoin="round" d="M 16212,12967 L 16462,12967 16337,12717 16212,12967 Z"/>
 <path fill="rgb(87,157,28)" stroke="none" d="M 18456,13083 L 18706,13083 18581,12833 18456,13083 Z"/>
 <path fill="none" stroke="rgb(87,157,28)" stroke-linejoin="round" d="M 18456,13083 L 18706,13083 18581,12833 18456,13083 Z"/>
 <path fill="none" stroke="rgb(255,211,32)" stroke-width="80" stroke-linejoin="round" d="M 2877,9355 L 5120,11791 7364,12500 9607,13002 11850,13337 14093,13547 16337,13689 18581,13784"/>
 <path fill="rgb(255,211,32)" stroke="none" d="M 2752,9230 L 2877,9480 3002,9230 2752,9230 Z"/>
 <path fill="none" stroke="rgb(255,211,32)" stroke-linejoin="round" d="M 2752,9230 L 2877,9480 3002,9230 2752,9230 Z"/>
 <path fill="rgb(255,211,32)" stroke="none" d="M 4995,11666 L 5120,11916 5245,11666 4995,11666 Z"/>
 <path fill="none" stroke="rgb(255,211,32)" stroke-linejoin="round" d="M 4995,11666 L 5120,11916 5245,11666 4995,11666 Z"/>
 <path fill="rgb(255,211,32)" stroke="none" d="M 7239,12375 L 7364,12625 7489,12375 7239,12375 Z"/>
 <path fill="none" stroke="rgb(255,211,32)" stroke-linejoin="round" d="M 7239,12375 L 7364,12625 7489,12375 7239,12375 Z"/>
 <path fill="rgb(255,211,32)" stroke="none" d="M 9482,12877 L 9607,13127 9732,12877 9482,12877 Z"/>
 <path fill="none" stroke="rgb(255,211,32)" stroke-linejoin="round" d="M 9482,12877 L 9607,13127 9732,12877 9482,12877 Z"/>
 <path fill="rgb(255,211,32)" stroke="none" d="M 11726,13212 L 11850,13462 11975,13212 11726,13212 Z"/>
 <path fill="none" stroke="rgb(255,211,32)" stroke-linejoin="round" d="M 11726,13212 L 11850,13462 11975,13212 11726,13212 Z"/>
 <path fill="rgb(255,211,32)" stroke="none" d="M 13968,13422 L 14093,13672 14218,13422 13968,13422 Z"/>
 <path fill="none" stroke="rgb(255,211,32)" stroke-linejoin="round" d="M 13968,13422 L 14093,13672 14218,13422 13968,13422 Z"/>
 <path fill="rgb(255,211,32)" stroke="none" d="M 16212,13564 L 16337,13814 16462,13564 16212,13564 Z"/>
 <path fill="none" stroke="rgb(255,211,32)" stroke-linejoin="round" d="M 16212,13564 L 16337,13814 16462,13564 16212,13564 Z"/>
 <path fill="rgb(255,211,32)" stroke="none" d="M 18456,13659 L 18581,13909 18706,13659 18456,13659 Z"/>
 <path fill="none" stroke="rgb(255,211,32)" stroke-linejoin="round" d="M 18456,13659 L 18581,13909 18706,13659 18456,13659 Z"/>
 <path fill="none" stroke="rgb(0,69,134)" stroke-width="80" stroke-linejoin="round" d="M 2877,11986 L 5120,12642 7364,12969 9607,13057 11850,13401 14093,13618 16337,13767 18581,13865"/>
 <path fill="rgb(0,69,134)" stroke="none" d="M 2752,11861 L 2752,12111 3002,12111 3002,11861 2752,11861 Z"/>
 <path fill="none" stroke="rgb(0,69,134)" stroke-linejoin="round" d="M 2752,11861 L 2752,12111 3002,12111 3002,11861 2752,11861 Z"/>
 <path fill="rgb(0,69,134)" stroke="none" d="M 4995,12517 L 4995,12767 5245,12767 5245,12517 4995,12517 Z"/>
 <path fill="none" stroke="rgb(0,69,134)" stroke-linejoin="round" d="M 4995,12517 L 4995,12767 5245,12767 5245,12517 4995,12517 Z"/>
 <path fill="rgb(0,69,134)" stroke="none" d="M 7239,12844 L 7239,13094 7489,13094 7489,12844 7239,12844 Z"/>
 <path fill="none" stroke="rgb(0,69,134)" stroke-linejoin="round" d="M 7239,12844 L 7239,13094 7489,13094 7489,12844 7239,12844 Z"/>
 <path fill="rgb(0,69,134)" stroke="none" d="M 9482,12932 L 9482,13182 9732,13182 9732,12932 9482,12932 Z"/>
 <path fill="none" stroke="rgb(0,69,134)" stroke-linejoin="round" d="M 9482,12932 L 9482,13182 9732,13182 9732,12932 9482,12932 Z"/>
 <path fill="rgb(0,69,134)" stroke="none" d="M 11726,13276 L 11726,13526 11975,13526 11975,13276 11726,13276 Z"/>
 <path fill="none" stroke="rgb(0,69,134)" stroke-linejoin="round" d="M 11726,13276 L 11726,13526 11975,13526 11975,13276 11726,13276 Z"/>
 <path fill="rgb(0,69,134)" stroke="none" d="M 13968,13493 L 13968,13743 14218,13743 14218,13493 13968,13493 Z"/>
 <path fill="none" stroke="rgb(0,69,134)" stroke-linejoin="round" d="M 13968,13493 L 13968,13743 14218,13743 14218,13493 13968,13493 Z"/>
 <path fill="rgb(0,69,134)" stroke="none" d="M 16212,13642 L 16212,13892 16462,13892 16462,13642 16212,13642 Z"/>
 <path fill="none" stroke="rgb(0,69,134)" stroke-linejoin="round" d="M 16212,13642 L 16212,13892 16462,13892 16462,13642 16212,13642 Z"/>
 <path fill="rgb(0,69,134)" stroke="none" d="M 18456,13740 L 18456,13990 18706,13990 18706,13740 18456,13740 Z"/>
 <path fill="none" stroke="rgb(0,69,134)" stroke-linejoin="round" d="M 18456,13740 L 18456,13990 18706,13990 18706,13740 18456,13740 Z"/>
 <path fill="none" stroke="rgb(255,66,14)" stroke-width="80" stroke-linejoin="round" d="M 2877,13673 L 5120,13963 7364,14072 9607,14155 11850,14211 14093,14257 16337,14202 18581,14287"/>
 <path fill="rgb(255,66,14)" stroke="none" d="M 2752,13673 L 2877,13798 3002,13673 2877,13548 2752,13673 Z"/>
 <path fill="none" stroke="rgb(255,66,14)" stroke-linejoin="round" d="M 2752,13673 L 2877,13798 3002,13673 2877,13548 2752,13673 Z"/>
 <path fill="rgb(255,66,14)" stroke="none" d="M 4995,13963 L 5120,14088 5245,13963 5120,13838 4995,13963 Z"/>
 <path fill="none" stroke="rgb(255,66,14)" stroke-linejoin="round" d="M 4995,13963 L 5120,14088 5245,13963 5120,13838 4995,13963 Z"/>
 <path fill="rgb(255,66,14)" stroke="none" d="M 7239,14072 L 7364,14197 7489,14072 7364,13947 7239,14072 Z"/>
 <path fill="none" stroke="rgb(255,66,14)" stroke-linejoin="round" d="M 7239,14072 L 7364,14197 7489,14072 7364,13947 7239,14072 Z"/>
 <path fill="rgb(255,66,14)" stroke="none" d="M 9482,14155 L 9607,14280 9732,14155 9607,14030 9482,14155 Z"/>
 <path fill="none" stroke="rgb(255,66,14)" stroke-linejoin="round" d="M 9482,14155 L 9607,14280 9732,14155 9607,14030 9482,14155 Z"/>
 <path fill="rgb(255,66,14)" stroke="none" d="M 11726,14211 L 11850,14336 11975,14211 11850,14086 11726,14211 Z"/>
 <path fill="none" stroke="rgb(255,66,14)" stroke-linejoin="round" d="M 11726,14211 L 11850,14336 11975,14211 11850,14086 11726,14211 Z"/>
 <path fill="rgb(255,66,14)" stroke="none" d="M 13968,14257 L 14093,14382 14218,14257 14093,14132 13968,14257 Z"/>
 <path fill="none" stroke="rgb(255,66,14)" stroke-linejoin="round" d="M 13968,14257 L 14093,14382 14218,14257 14093,14132 13968,14257 Z"/>
 <path fill="rgb(255,66,14)" stroke="none" d="M 16212,14202 L 16337,14327 16462,14202 16337,14077 16212,14202 Z"/>
 <path fill="none" stroke="rgb(255,66,14)" stroke-linejoin="round" d="M 16212,14202 L 16337,14327 16462,14202 16337,14077 16212,14202 Z"/>
 <path fill="rgb(255,66,14)" stroke="none" d="M 18456,14287 L 18581,14412 18706,14287 18581,14162 18456,14287 Z"/>
 <path fill="none" stroke="rgb(255,66,14)" stroke-linejoin="round" d="M 18456,14287 L 18581,14412 18706,14287 18581,14162 18456,14287 Z"/>
 <text class="TextShape"><tspan class="TextParagraph" font-family="Liberation Sans, sans-serif" font-size="353px" font-weight="400"><tspan class="TextPosition" x="2492" y="16507"><tspan fill="rgb(0,0,0)" stroke="none">1000</tspan></tspan></tspan></text>
 <text class="TextShape"><tspan class="TextParagraph" font-family="Liberation Sans, sans-serif" font-size="353px" font-weight="400"><tspan class="TextPosition" x="4735" y="16507"><tspan fill="rgb(0,0,0)" stroke="none">5000</tspan></tspan></tspan></text>
 <text class="TextShape"><tspan class="TextParagraph" font-family="Liberation Sans, sans-serif" font-size="353px" font-weight="400"><tspan class="TextPosition" x="6874" y="16507"><tspan fill="rgb(0,0,0)" stroke="none">10000</tspan></tspan></tspan></text>
 <text class="TextShape"><tspan class="TextParagraph" font-family="Liberation Sans, sans-serif" font-size="353px" font-weight="400"><tspan class="TextPosition" x="9117" y="16507"><tspan fill="rgb(0,0,0)" stroke="none">20000</tspan></tspan></tspan></text>
 <text class="TextShape"><tspan class="TextParagraph" font-family="Liberation Sans, sans-serif" font-size="353px" font-weight="400"><tspan class="TextPosition" x="11361" y="16507"><tspan fill="rgb(0,0,0)" stroke="none">40000</tspan></tspan></tspan></text>
 <text class="TextShape"><tspan class="TextParagraph" font-family="Liberation Sans, sans-serif" font-size="353px" font-weight="400"><tspan class="TextPosition" x="13604" y="16507"><tspan fill="rgb(0,0,0)" stroke="none">80000</tspan></tspan></tspan></text>
 <text class="TextShape"><tspan class="TextParagraph" font-family="Liberation Sans, sans-serif" font-size="353px" font-weight="400"><tspan class="TextPosition" x="15755" y="16507"><tspan fill="rgb(0,0,0)" stroke="none">160000</tspan></tspan></tspan></text>
 <text class="TextShape"><tspan class="TextParagraph" font-family="Liberation Sans, sans-serif" font-size="353px" font-weight="400"><tspan class="TextPosition" x="17999" y="16507"><tspan fill="rgb(0,0,0)" stroke="none">320000</tspan></tspan></tspan></text>
 <text class="TextShape"><tspan class="TextParagraph" font-family="Liberation Sans, sans-serif" font-size="353px" font-weight="400"><tspan class="TextPosition" x="1648" y="16060"><tspan fill="rgb(0,0,0)" stroke="none">0.00M</tspan></tspan></tspan></text>
 <text class="TextShape"><tspan class="TextParagraph" font-family="Liberation Sans, sans-serif" font-size="353px" font-weight="400"><tspan class="TextPosition" x="1462" y="14298"><tspan fill="rgb(0,0,0)" stroke="none">20.00M</tspan></tspan></tspan></text>
 <text class="TextShape"><tspan class="TextParagraph" font-family="Liberation Sans, sans-serif" font-size="353px" font-weight="400"><tspan class="TextPosition" x="1462" y="12536"><tspan fill="rgb(0,0,0)" stroke="none">40.00M</tspan></tspan></tspan></text>
 <text class="TextShape"><tspan class="TextParagraph" font-family="Liberation Sans, sans-serif" font-size="353px" font-weight="400"><tspan class="TextPosition" x="1462" y="10774"><tspan fill="rgb(0,0,0)" stroke="none">60.00M</tspan></tspan></tspan></text>
 <text class="TextShape"><tspan class="TextParagraph" font-family="Liberation Sans, sans-serif" font-size="353px" font-weight="400"><tspan class="TextPosition" x="1462" y="9012"><tspan fill="rgb(0,0,0)" stroke="none">80.00M</tspan></tspan></tspan></text>
 <text class="TextShape"><tspan class="TextParagraph" font-family="Liberation Sans, sans-serif" font-size="353px" font-weight="400"><tspan class="TextPosition" x="1275" y="7250"><tspan fill="rgb(0,0,0)" stroke="none">100.00M</tspan></tspan></tspan></text>
 <text class="TextShape"><tspan class="TextParagraph" font-family="Liberation Sans, sans-serif" font-size="353px" font-weight="400"><tspan class="TextPosition" x="1275" y="5488"><tspan fill="rgb(0,0,0)" stroke="none">120.00M</tspan></tspan></tspan></text>
 <text class="TextShape"><tspan class="TextParagraph" font-family="Liberation Sans, sans-serif" font-size="353px" font-weight="400"><tspan class="TextPosition" x="1275" y="3726"><tspan fill="rgb(0,0,0)" stroke="none">140.00M</tspan></tspan></tspan></text>
 <text class="TextShape"><tspan class="TextParagraph" font-family="Liberation Sans, sans-serif" font-size="353px" font-weight="400"><tspan class="TextPosition" x="1275" y="1965"><tspan fill="rgb(0,0,0)" stroke="none">160.00M</tspan></tspan></tspan></text>
 <text class="TextShape"><tspan class="TextParagraph" font-family="Liberation Sans, sans-serif" font-size="459px" font-weight="400"><tspan class="TextPosition" x="8626" y="1050"><tspan fill="rgb(0,0,0)" stroke="none">Recording size and chunk size</tspan></tspan></tspan></text>
 <path fill="none" stroke="rgb(131,202,255)" stroke-width="80" stroke-linejoin="round" d="M 19937,7705 L 20737,7705"/>
 <path fill="rgb(131,202,255)" stroke="none" d="M 20231,7705 L 20442,7811 20442,7600 20231,7705 Z"/>
 <path fill="none" stroke="rgb(131,202,255)" stroke-linejoin="round" d="M 20231,7705 L 20442,7811 20442,7600 20231,7705 Z"/>
 <path fill="none" stroke="rgb(126,0,33)" stroke-width="80" stroke-linejoin="round" d="M 19937,8202 L 20737,8202"/>
 <path fill="rgb(126,0,33)" stroke="none" d="M 20231,8097 L 20231,8308 20442,8202 20231,8097 Z"/>
 <path fill="none" stroke="rgb(126,0,33)" stroke-linejoin="round" d="M 20231,8097 L 20231,8308 20442,8202 20231,8097 Z"/>
 <path fill="none" stroke="rgb(87,157,28)" stroke-width="80" stroke-linejoin="round" d="M 19937,8699 L 20737,8699"/>
 <path fill="rgb(87,157,28)" stroke="none" d="M 20231,8805 L 20442,8805 20337,8594 20231,8805 Z"/>
 <path fill="none" stroke="rgb(87,157,28)" stroke-linejoin="round" d="M 20231,8805 L 20442,8805 20337,8594 20231,8805 Z"/>
 <path fill="none" stroke="rgb(255,211,32)" stroke-width="80" stroke-linejoin="round" d="M 19937,9195 L 20737,9195"/>
 <path fill="rgb(255,211,32)" stroke="none" d="M 20231,9090 L 20337,9301 20442,9090 20231,9090 Z"/>
 <path fill="none" stroke="rgb(255,211,32)" stroke-linejoin="round" d="M 20231,9090 L 20337,9301 20442,9090 20231,9090 Z"/>
 <path fill="none" stroke="rgb(0,69,134)" stroke-width="80" stroke-linejoin="round" d="M 19937,9692 L 20737,9692"/>
 <path fill="rgb(0,69,134)" stroke="none" d="M 20231,9587 L 20231,9798 20442,9798 20442,9587 20231,9587 Z"/>
 <path fill="none" stroke="rgb(0,69,134)" stroke-linejoin="round" d="M 20231,9587 L 20231,9798 20442,9798 20442,9587 20231,9587 Z"/>
 <path fill="none" stroke="rgb(255,66,14)" stroke-width="80" stroke-linejoin="round" d="M 19937,10189 L 20737,10189"/>
 <path fill="rgb(255,66,14)" stroke="none" d="M 20231,10189 L 20337,10295 20442,10189 20337,10084 20231,10189 Z"/>
 <path fill="none" stroke="rgb(255,66,14)" stroke-linejoin="round" d="M 20231,10189 L 20337,10295 20442,10189 20337,10084 20231,10189 Z"/>
 <text class="TextShape"><tspan class="TextParagraph" font-family="Liberation Sans, sans-serif" font-size="353px" font-weight="400"><tspan class="TextPosition" x="20837" y="7833"><tspan fill="rgb(0,0,0)" stroke="none">uncompressed</tspan></tspan></tspan></text>
 <text class="TextShape"><tspan class="TextParagraph" font-family="Liberation Sans, sans-serif" font-size="353px" font-weight="400"><tspan class="TextPosition" x="20837" y="8330"><tspan fill="rgb(0,0,0)" stroke="none">snzip</tspan></tspan></tspan></text>
 <text class="TextShape"><tspan class="TextParagraph" font-family="Liberation Sans, sans-serif" font-size="353px" font-weight="400"><tspan class="TextPosition" x="20837" y="8827"><tspan fill="rgb(0,0,0)" stroke="none">lz</tspan></tspan></tspan></text>
 <text class="TextShape"><tspan class="TextParagraph" font-family="Liberation Sans, sans-serif" font-size="353px" font-weight="400"><tspan class="TextPosition" x="20837" y="9323"><tspan fill="rgb(0,0,0)" stroke="none">gzip</tspan></tspan></tspan></text>
 <text class="TextShape"><tspan class="TextParagraph" font-family="Liberation Sans, sans-serif" font-size="353px" font-weight="400"><tspan class="TextPosition" x="20837" y="9820"><tspan fill="rgb(0,0,0)" stroke="none">zstd</tspan></tspan></tspan></text>
 <text class="TextShape"><tspan class="TextParagraph" font-family="Liberation Sans, sans-serif" font-size="353px" font-weight="400"><tspan class="TextPosition" x="20837" y="10317"><tspan fill="rgb(0,0,0)" stroke="none">xz</tspan></tspan></tspan></text>
 <text class="TextShape"><tspan class="TextParagraph" font-family="Liberation Sans, sans-serif" font-size="318px" font-weight="400"><tspan class="TextPosition" x="9626" y="17311"><tspan fill="rgb(0,0,0)" stroke="none">Chunk size</tspan></tspan></tspan></text>
 <text class="TextShape" transform="translate(827,9691) rotate(-90) translate(-827,-9691)"><tspan class="TextParagraph" font-family="Liberation Sans, sans-serif" font-size="318px" font-weight="400"><tspan class="TextPosition" x="827" y="9691"><tspan fill="rgb(0,0,0)" stroke="none">FIle size</tspan></tspan></tspan></text>
</svg>